# File produced by Open Asset Import Library (http://www.assimp.sf.net)
# (assimp v3.1.202510665)

mtllib Base1.mtl

# vertex positions
v -16.000000 19.951990 20.972589
v -36.000000 19.951990 20.972589
v -36.000000 0.298013 19.027411
v -16.000000 0.298013 19.027411
v -36.000000 19.946280 -1.028601
v -36.000000 0.303716 1.028600
v -16.000000 19.946280 -1.028601
v -16.000000 0.303716 1.028600

# UV coordinates
vt 0.683473 0.690405
vt 0.114703 0.847383
vt 0.287315 0.525736
vt 0.505534 0.543483
vt 0.000002 0.000002
vt 0.223633 0.230836
vt 0.873236 0.186960
vt 0.578740 0.343160
vt 0.999998 0.984284

# vertex normals
vn 0.000000 -0.098490 0.995138
vn -1.000000 0.000000 0.000000
vn 0.000000 -0.104162 -0.994560
vn 1.000000 0.000000 0.000000
vn 0.000000 1.000000 -0.000259
vn 0.000000 -1.000000 -0.000317

# Mesh
g Cube
usemtl default
f 4/4/1 1/1/1 2/2/1
f 2/2/1 3/3/1 4/4/1
f 3/3/2 2/2/2 5/5/2
f 5/5/2 6/6/2 3/3/2
f 6/6/3 5/5/3 7/7/3
f 7/7/3 8/8/3 6/6/3
f 8/8/4 7/7/4 1/1/4
f 1/1/4 4/4/4 8/8/4
f 1/1/5 7/7/5 5/9/5
f 5/9/5 2/2/5 1/1/5
f 8/8/6 4/4/6 3/3/6
f 3/3/6 6/6/6 8/8/6
