# File produced by Open Asset Import Library (http://www.assimp.sf.net)
# (assimp v3.1.202510665)

mtllib metalrodshort.mtl

# vertex positions
v 1.000000 5.000000 -46.750000
v 0.750000 5.000000 -46.750000
v 0.750000 4.750000 -46.750000
v 1.000000 4.750000 -46.750000
v 0.750000 5.000000 -51.500000
v 0.750000 4.750000 -51.500000
v 1.000000 5.000000 -51.500000
v 1.000000 4.750000 -51.500000

# UV coordinates
vt 0.828970 0.097702
vt 0.835848 0.070224
vt 0.999998 0.000002
vt 0.853617 0.108351
vt 0.003249 0.095393
vt 0.000002 0.028445
vt 0.140956 0.306465
vt 0.285796 0.563123
vt 0.382883 0.801817

# vertex normals
vn 0.000000 0.000000 1.000000
vn -1.000000 0.000000 0.000000
vn 0.000000 0.000000 -1.000000
vn 1.000000 0.000000 0.000000
vn 0.000000 1.000000 0.000000
vn 0.000000 -1.000000 0.000000

# Mesh
g Cube
usemtl default
f 4/4/1 1/1/1 2/2/1
f 2/2/1 3/3/1 4/4/1
f 3/3/2 2/2/2 5/5/2
f 5/5/2 6/6/2 3/3/2
f 6/9/3 5/5/3 7/7/3
f 7/7/3 8/8/3 6/9/3
f 8/8/4 7/7/4 1/1/4
f 1/1/4 4/4/4 8/8/4
f 1/1/5 7/7/5 5/5/5
f 5/5/5 2/2/5 1/1/5
f 8/8/6 4/4/6 3/3/6
f 3/3/6 6/9/6 8/8/6
